HIERARCHY
ROOT Hips
{
	OFFSET -318.810852 89.264893 -575.244751
	CHANNELS 6 Xposition Yposition Zposition Zrotation Yrotation Xrotation 
	JOINT Spine
	{
		OFFSET -0.000000 8.814246 -2.080107
		CHANNELS 3 Zrotation Yrotation Xrotation
		JOINT Spine1
		{
			OFFSET -0.000000 8.844141 0.000000
			CHANNELS 3 Zrotation Yrotation Xrotation
			JOINT Spine2
			{
				OFFSET 0.000000 11.682268 0.000000
				CHANNELS 3 Zrotation Yrotation Xrotation
				JOINT Spine3
				{
					OFFSET -0.000000 11.746700 0.000000
					CHANNELS 3 Zrotation Yrotation Xrotation
					JOINT Neck
					{
						OFFSET -0.000000 17.658264 0.000000
						CHANNELS 3 Zrotation Yrotation Xrotation
						JOINT Neck1
						{
							OFFSET 0.000000 5.101515 -0.000000
							CHANNELS 3 Zrotation Yrotation Xrotation
							JOINT Head
							{
								OFFSET -0.000000 5.101515 -0.000000
								CHANNELS 3 Zrotation Yrotation Xrotation
								JOINT HeadEnd
								{
									OFFSET 0.000000 11.655085 -0.000000
									CHANNELS 3 Zrotation Yrotation Xrotation
									End Site
									{
										OFFSET 0.000000 0.000000 0.000000
									}
								}
							}
						}
					}
					JOINT RightShoulder
					{
						OFFSET -2.625389 11.175210 -0.000000
						CHANNELS 3 Zrotation Yrotation Xrotation
						JOINT RightArm
						{
							OFFSET 0.000000 10.434715 -0.000000
							CHANNELS 3 Zrotation Yrotation Xrotation
							JOINT RightForeArm
							{
								OFFSET -0.000000 29.628420 0.000000
								CHANNELS 3 Zrotation Yrotation Xrotation
								JOINT RightHand
								{
									OFFSET -0.000000 22.857611 0.000000
									CHANNELS 3 Zrotation Yrotation Xrotation
									JOINT RightHandThumb1
									{
										OFFSET -2.867323 3.959563 2.944291
										CHANNELS 3 Zrotation Yrotation Xrotation
										JOINT RightHandThumb2
										{
											OFFSET -0.000000 3.350399 0.000000
											CHANNELS 3 Zrotation Yrotation Xrotation
											JOINT RightHandThumb3
											{
												OFFSET -0.000000 3.756509 -0.000000
												CHANNELS 3 Zrotation Yrotation Xrotation
												JOINT RightHandThumb4
												{
													OFFSET -0.000000 3.147345 0.000000
													CHANNELS 3 Zrotation Yrotation Xrotation
													End Site
													{
														OFFSET 0.000000 0.000000 0.000000
													}
												}
											}
										}
									}
									JOINT RightHandIndex1
									{
										OFFSET -0.086752 10.030893 2.345280
										CHANNELS 3 Zrotation Yrotation Xrotation
										JOINT RightHandIndex2
										{
											OFFSET 0.000000 4.061090 -0.000000
											CHANNELS 3 Zrotation Yrotation Xrotation
											JOINT RightHandIndex3
											{
												OFFSET 0.000000 3.248873 -0.000000
												CHANNELS 3 Zrotation Yrotation Xrotation
												JOINT RightHandIndex4
												{
													OFFSET 0.000000 2.639709 0.000000
													CHANNELS 3 Zrotation Yrotation Xrotation
													End Site
													{
														OFFSET 0.000000 0.000000 0.000000
													}
												}
											}
										}
									}
									JOINT RightHandMiddle1
									{
										OFFSET 0.104102 9.502952 0.006768
										CHANNELS 3 Zrotation Yrotation Xrotation
										JOINT RightHandMiddle2
										{
											OFFSET 0.000000 4.568727 0.000000
											CHANNELS 3 Zrotation Yrotation Xrotation
											JOINT RightHandMiddle3
											{
												OFFSET 0.000000 3.654981 -0.000000
												CHANNELS 3 Zrotation Yrotation Xrotation
												JOINT RightHandMiddle4
												{
													OFFSET -0.000000 2.741236 0.000000
													CHANNELS 3 Zrotation Yrotation Xrotation
													End Site
													{
														OFFSET 0.000000 0.000000 0.000000
													}
												}
											}
										}
									}
									JOINT RightHandRing1
									{
										OFFSET 0.086752 8.921708 -2.267442
										CHANNELS 3 Zrotation Yrotation Xrotation
										JOINT RightHandRing2
										{
											OFFSET 0.000000 4.061090 -0.000000
											CHANNELS 3 Zrotation Yrotation Xrotation
											JOINT RightHandRing3
											{
												OFFSET -0.000000 3.654981 0.000000
												CHANNELS 3 Zrotation Yrotation Xrotation
												JOINT RightHandRing4
												{
													OFFSET -0.000000 2.741236 0.000000
													CHANNELS 3 Zrotation Yrotation Xrotation
													End Site
													{
														OFFSET 0.000000 0.000000 0.000000
													}
												}
											}
										}
									}
									JOINT RightHandPinky1
									{
										OFFSET -0.173504 7.976997 -4.467199
										CHANNELS 3 Zrotation Yrotation Xrotation
										JOINT RightHandPinky2
										{
											OFFSET -0.000000 3.350399 0.000000
											CHANNELS 3 Zrotation Yrotation Xrotation
											JOINT RightHandPinky3
											{
												OFFSET 0.000000 2.842763 0.000000
												CHANNELS 3 Zrotation Yrotation Xrotation
												JOINT RightHandPinky4
												{
													OFFSET 0.000000 2.639709 0.000000
													CHANNELS 3 Zrotation Yrotation Xrotation
													End Site
													{
														OFFSET 0.000000 0.000000 0.000000
													}
												}
											}
										}
									}
									JOINT RightForeArmEnd
									{
										OFFSET 0.000000 0.000000 0.000000
										CHANNELS 3 Zrotation Yrotation Xrotation
										End Site
										{
											OFFSET 0.000000 0.000000 0.000000
										}
									}
								}
								JOINT RightArmEnd
								{
									OFFSET 0.000000 0.000000 0.000000
									CHANNELS 3 Zrotation Yrotation Xrotation
									End Site
									{
										OFFSET 0.000000 0.000000 0.000000
									}
								}
							}
						}
					}
					JOINT LeftShoulder
					{
						OFFSET 2.625389 11.175210 0.000000
						CHANNELS 3 Zrotation Yrotation Xrotation
						JOINT LeftArm
						{
							OFFSET -0.000000 10.813635 -0.000000
							CHANNELS 3 Zrotation Yrotation Xrotation
							JOINT LeftForeArm
							{
								OFFSET -0.000000 28.724781 -0.000000
								CHANNELS 3 Zrotation Yrotation Xrotation
								JOINT LeftHand
								{
									OFFSET 0.644384 25.716167 -0.328871
									CHANNELS 3 Zrotation Yrotation Xrotation
									JOINT LeftHandThumb1
									{
										OFFSET 2.867323 3.959563 2.944291
										CHANNELS 3 Zrotation Yrotation Xrotation
										JOINT LeftHandThumb2
										{
											OFFSET 0.000000 3.350399 0.000000
											CHANNELS 3 Zrotation Yrotation Xrotation
											JOINT LeftHandThumb3
											{
												OFFSET -0.000000 3.756509 -0.000000
												CHANNELS 3 Zrotation Yrotation Xrotation
												JOINT LeftHandThumb4
												{
													OFFSET 0.000000 3.100000 0.000000
													CHANNELS 3 Zrotation Yrotation Xrotation
													End Site
													{
														OFFSET 0.000000 0.000000 0.000000
													}
												}
											}
										}
									}
									JOINT LeftHandIndex1
									{
										OFFSET 0.086752 10.030893 2.345280
										CHANNELS 3 Zrotation Yrotation Xrotation
										JOINT LeftHandIndex2
										{
											OFFSET 0.000000 4.061090 0.000000
											CHANNELS 3 Zrotation Yrotation Xrotation
											JOINT LeftHandIndex3
											{
												OFFSET -0.000000 3.248873 -0.000000
												CHANNELS 3 Zrotation Yrotation Xrotation
												JOINT LeftHandIndex4
												{
													OFFSET 0.000000 2.639709 0.000000
													CHANNELS 3 Zrotation Yrotation Xrotation
													End Site
													{
														OFFSET 0.000000 0.000000 0.000000
													}
												}
											}
										}
									}
									JOINT LeftHandMiddle1
									{
										OFFSET -0.104102 9.502952 0.006768
										CHANNELS 3 Zrotation Yrotation Xrotation
										JOINT LeftHandMiddle2
										{
											OFFSET -0.000000 4.568727 -0.000000
											CHANNELS 3 Zrotation Yrotation Xrotation
											JOINT LeftHandMiddle3
											{
												OFFSET -0.000000 3.654981 -0.000000
												CHANNELS 3 Zrotation Yrotation Xrotation
												JOINT LeftHandMiddle4
												{
													OFFSET 0.000000 2.741236 0.000000
													CHANNELS 3 Zrotation Yrotation Xrotation
													End Site
													{
														OFFSET 0.000000 0.000000 0.000000
													}
												}
											}
										}
									}
									JOINT LeftHandRing1
									{
										OFFSET -0.086752 8.921708 -2.267442
										CHANNELS 3 Zrotation Yrotation Xrotation
										JOINT LeftHandRing2
										{
											OFFSET 0.000000 4.061090 0.000000
											CHANNELS 3 Zrotation Yrotation Xrotation
											JOINT LeftHandRing3
											{
												OFFSET 0.000000 3.654981 -0.000000
												CHANNELS 3 Zrotation Yrotation Xrotation
												JOINT LeftHandRing4
												{
													OFFSET -0.000000 2.741236 -0.000000
													CHANNELS 3 Zrotation Yrotation Xrotation
													End Site
													{
														OFFSET 0.000000 0.000000 0.000000
													}
												}
											}
										}
									}
									JOINT LeftHandPinky1
									{
										OFFSET 0.173504 7.976997 -4.467199
										CHANNELS 3 Zrotation Yrotation Xrotation
										JOINT LeftHandPinky2
										{
											OFFSET -0.000000 3.350399 -0.000000
											CHANNELS 3 Zrotation Yrotation Xrotation
											JOINT LeftHandPinky3
											{
												OFFSET 0.000000 2.842763 -0.000000
												CHANNELS 3 Zrotation Yrotation Xrotation
												JOINT LeftHandPinky4
												{
													OFFSET -0.000000 2.639709 -0.000000
													CHANNELS 3 Zrotation Yrotation Xrotation
													End Site
													{
														OFFSET 0.000000 0.000000 0.000000
													}
												}
											}
										}
									}
									JOINT LeftForeArmEnd
									{
										OFFSET 0.000000 0.000000 0.000000
										CHANNELS 3 Zrotation Yrotation Xrotation
										End Site
										{
											OFFSET 0.000000 0.000000 0.000000
										}
									}
								}
								JOINT LeftArmEnd
								{
									OFFSET 0.000000 0.000000 0.000000
									CHANNELS 3 Zrotation Yrotation Xrotation
									End Site
									{
										OFFSET 0.000000 0.000000 0.000000
									}
								}
							}
						}
					}
				}
			}
		}
	}
	JOINT RightUpLeg
	{
		OFFSET -11.289943 -0.000000 0.000000
		CHANNELS 3 Zrotation Yrotation Xrotation
		JOINT RightLeg
		{
			OFFSET 0.000000 -38.200325 -0.000000
			CHANNELS 3 Zrotation Yrotation Xrotation
			JOINT RightFoot
			{
				OFFSET -0.000000 -39.900856 0.000000
				CHANNELS 3 Zrotation Yrotation Xrotation
				JOINT RightToeBase
				{
					OFFSET 0.000000 0.000000 15.261641
					CHANNELS 3 Zrotation Yrotation Xrotation
					JOINT RightToeBaseEnd
					{
						OFFSET 0.000000 0.000000 7.370709
						CHANNELS 3 Zrotation Yrotation Xrotation
						End Site
						{
							OFFSET 0.000000 0.000000 0.000000
						}
					}
				}
				JOINT RightLegEnd
				{
					OFFSET 0.000000 0.000000 0.000000
					CHANNELS 3 Zrotation Yrotation Xrotation
					End Site
					{
						OFFSET 0.000000 0.000000 0.000000
					}
				}
			}
			JOINT RightUpLegEnd
			{
				OFFSET 0.000000 0.000000 0.000000
				CHANNELS 3 Zrotation Yrotation Xrotation
				End Site
				{
					OFFSET 0.000000 0.000000 0.000000
				}
			}
		}
	}
	JOINT LeftUpLeg
	{
		OFFSET 11.315661 0.000000 0.000000
		CHANNELS 3 Zrotation Yrotation Xrotation
		JOINT LeftLeg
		{
			OFFSET 0.000000 -38.200325 -0.000000
			CHANNELS 3 Zrotation Yrotation Xrotation
			JOINT LeftFoot
			{
				OFFSET 0.000000 -39.900856 -0.000000
				CHANNELS 3 Zrotation Yrotation Xrotation
				JOINT LeftToeBase
				{
					OFFSET 0.000000 -0.000000 15.261641
					CHANNELS 3 Zrotation Yrotation Xrotation
					JOINT LeftToeBaseEnd
					{
						OFFSET -0.000000 0.000000 7.539996
						CHANNELS 3 Zrotation Yrotation Xrotation
						End Site
						{
							OFFSET 0.000000 0.000000 0.000000
						}
					}
				}
				JOINT LeftLegEnd
				{
					OFFSET 0.000000 0.000000 0.000000
					CHANNELS 3 Zrotation Yrotation Xrotation
					End Site
					{
						OFFSET 0.000000 0.000000 0.000000
					}
				}
			}
			JOINT LeftUpLegEnd
			{
				OFFSET 0.000000 0.000000 0.000000
				CHANNELS 3 Zrotation Yrotation Xrotation
				End Site
				{
					OFFSET 0.000000 0.000000 0.000000
				}
			}
		}
	}
}
MOTION
Frames: 4
Frame Time: 0.016667
0.000000 88.859909 0.000000 -0.554998 -0.031602 -6.496632 0.035903 -0.002268 5.888138 1.007702 -0.066753 0.859935 -0.482675 2.416700 3.828049 -0.160674 0.780135 1.924824 -2.324279 -0.847468 5.016634 -0.365139 -2.116586 -3.221972 0.720381 0.853138 -18.220909 -0.000000 0.000000 0.000000 92.020264 -0.208433 5.546823 69.638977 -19.089222 -1.147146 0.059477 8.331355 28.544136 2.918324 25.791069 -8.931847 11.217805 -1.887471 39.615406 -0.000000 -0.000000 -27.315001 -0.000000 -0.000000 -18.968750 0.000000 -0.000000 -0.000000 13.213601 16.646936 -12.039723 11.238619 -0.665555 -3.398387 11.238005 0.315584 -3.203499 -0.000000 0.000000 -0.000000 14.610596 6.862490 -11.429158 11.135071 -0.860474 -1.356066 11.134000 0.111766 -1.162957 0.000000 0.000000 -0.000000 19.862411 -8.846702 -10.677219 12.650036 1.760184 1.978157 12.644374 -0.177743 1.540332 0.000000 0.000000 -0.000000 23.790289 -25.600761 -10.773305 12.395709 3.368127 5.825092 12.374578 -0.538114 4.967071 0.000000 0.000000 -0.000000 -0.000000 -0.000000 0.000000 -0.000000 -0.000000 0.000000 -90.685387 0.125338 9.277699 -68.205345 33.746468 -2.114504 -0.906679 -12.804414 36.500164 -5.004631 -13.813064 -13.796776 -10.637672 1.840801 39.870991 -0.000000 -0.000000 -25.920000 0.000000 0.000000 -18.000000 -0.000000 0.000000 -0.000000 -15.727524 16.759449 -9.934353 -8.634539 -0.781970 2.617437 -8.634686 0.185794 2.467350 -0.000000 -0.000000 -0.000000 -12.632175 6.870213 -11.103484 -7.858752 -0.942948 0.960031 -7.861093 -0.138773 0.818618 -0.000000 -0.000000 -0.000000 -9.446998 -8.823496 -11.456293 -7.804728 1.917102 -1.226388 -7.800338 -0.064224 -0.954850 0.000000 -0.000000 -0.000000 -4.422288 -25.333719 -13.915033 -6.810095 3.806906 -3.213968 -6.795250 -0.160380 -2.740026 0.000000 -0.000000 -0.000000 0.000000 0.000000 0.000000 -0.000000 -0.000000 -0.000000 1.904249 6.541767 7.475136 -0.037531 -0.408927 7.546109 -4.730400 1.738853 18.019159 -0.347465 0.340706 -20.620300 -0.000000 0.000000 0.000000 0.000000 0.000000 -0.000000 -0.000000 0.000000 -0.000000 1.163178 10.511870 11.895179 0.051614 0.626121 3.761402 1.290193 7.867616 18.489273 0.739732 -0.851381 -19.069052 -0.000000 -0.000000 -0.000000 0.000000 0.000000 -0.000000 0.000000 -0.000000 -0.000000 
-0.001691 88.858597 -0.028736 -0.546015 0.015790 -6.540519 0.030354 0.010347 5.908389 1.009666 -0.066050 0.854157 -0.483433 2.436790 3.856764 -0.157835 0.791674 1.926413 -2.368666 -0.849298 4.966205 -0.367771 -2.119022 -3.257150 0.737048 0.850891 -18.232510 -0.000000 0.000000 0.000000 92.078491 -0.215375 5.570901 69.583862 -19.339615 -1.074242 0.059718 8.259002 28.208775 3.008290 25.606363 -9.032346 11.236527 -1.888869 39.607235 -0.000000 -0.000000 -27.360001 -0.000000 -0.000000 -19.000000 0.000000 0.000000 0.000000 13.131173 16.649818 -11.990764 11.173825 -0.669402 -3.379021 11.173187 0.312219 -3.185243 -0.000000 0.000000 -0.000000 14.545625 6.864013 -11.367149 11.084665 -0.860509 -1.350005 11.083611 0.111204 -1.157760 -0.000000 0.000000 -0.000000 19.824522 -8.849485 -10.578322 12.634240 1.759401 1.975697 12.628625 -0.177641 1.538273 0.000000 0.000000 -0.000000 23.753410 -25.611254 -10.630821 12.411692 3.366574 5.832508 12.390651 -0.538326 4.973396 0.000000 0.000000 -0.000000 -0.000000 -0.000000 0.000000 -0.000000 0.000000 0.000000 -90.729805 0.132866 9.286955 -68.124779 33.952888 -2.049767 -0.914268 -12.737958 36.420734 -4.965848 -13.603972 -13.939131 -10.637672 1.840801 39.870991 -0.000000 -0.000000 -25.920000 0.000000 0.000000 -18.000000 0.000000 0.000000 -0.000000 -15.686392 16.752417 -10.079664 -8.578641 -0.782544 2.600630 -8.578850 0.183924 2.451513 -0.000000 -0.000000 -0.000000 -12.580639 6.867105 -11.236775 -7.811766 -0.943026 0.954328 -7.814077 -0.139744 0.814395 -0.000000 -0.000000 -0.000000 -9.411376 -8.820332 -11.560213 -7.791043 1.917188 -1.224251 -7.786661 -0.064188 -0.953185 -0.000000 -0.000000 -0.000000 -4.429252 -25.328089 -13.974279 -6.831210 3.807983 -3.223840 -6.816299 -0.159317 -2.748441 0.000000 -0.000000 -0.000000 0.000000 0.000000 0.000000 -0.000000 -0.000000 -0.000000 1.904546 6.538119 7.505138 -0.037495 -0.409169 7.550745 -4.719580 1.684391 18.005613 -0.349610 0.339833 -20.626190 -0.000000 -0.000000 0.000000 0.000000 0.000000 0.000000 -0.000000 0.000000 -0.000000 1.160881 10.500802 11.913302 0.051645 0.625011 3.761181 1.297712 7.832407 18.495724 0.738222 -0.849256 -19.080313 -0.000000 -0.000000 -0.000000 0.000000 0.000000 -0.000000 0.000000 -0.000000 -0.000000 
-0.003969 88.857178 -0.054972 -0.537306 0.065224 -6.582670 0.025016 0.021267 5.918584 1.011178 -0.065281 0.853201 -0.483353 2.454648 3.886969 -0.155061 0.801411 1.932399 -2.408692 -0.845080 4.914178 -0.369349 -2.116847 -3.291938 0.750220 0.849016 -18.246250 -0.000000 0.000000 0.000000 92.132248 -0.222092 5.599402 69.558243 -19.643209 -1.041514 0.059919 8.193754 27.943489 3.094597 25.349300 -9.089871 11.236527 -1.888869 39.607235 -0.000000 -0.000000 -27.360001 -0.000000 -0.000000 -19.000000 0.000000 0.000000 0.000000 13.091830 16.653584 -11.925960 11.134922 -0.671711 -3.367392 11.134291 0.309828 -3.174280 0.000000 0.000000 0.000000 14.512505 6.865177 -11.318477 11.057544 -0.860295 -1.346744 11.056504 0.110896 -1.154956 -0.000000 0.000000 0.000000 19.819992 -8.851662 -10.500926 12.639362 1.758289 1.975854 12.633835 -0.177852 1.537483 0.000000 0.000000 0.000000 23.741568 -25.622011 -10.482223 12.445667 3.363921 5.848242 12.424716 -0.539186 4.986816 0.000000 0.000000 0.000000 -0.000000 -0.000000 0.000000 -0.000000 -0.000000 0.000000 -90.765465 0.138895 9.290502 -68.078110 34.107765 -2.017099 -0.914029 -12.599590 36.385799 -4.943206 -13.608083 -14.049659 -10.637672 1.840801 39.870991 -0.000000 -0.000000 -25.920000 0.000000 0.000000 -18.000000 0.000000 0.000000 0.000000 -15.638946 16.745695 -10.215048 -8.520433 -0.783200 2.583124 -8.520699 0.182054 2.435017 -0.000000 0.000000 0.000000 -12.499813 6.864099 -11.361645 -7.745092 -0.943211 0.946233 -7.747315 -0.140894 0.809265 -0.000000 0.000000 0.000000 -9.278439 -8.817513 -11.652629 -7.708477 1.917999 -1.211357 -7.704141 -0.063707 -0.943144 -0.000000 0.000000 -0.000000 -4.275444 -25.324968 -14.006991 -6.740422 3.813324 -3.181143 -6.725626 -0.155588 -2.712033 -0.000000 0.000000 -0.000000 0.000000 0.000000 0.000000 -0.000000 -0.000000 -0.000000 1.904994 6.536668 7.536635 -0.037461 -0.409389 7.554302 -4.709115 1.626486 17.991068 -0.351570 0.338530 -20.642096 -0.000000 0.000000 -0.000000 0.000000 0.000000 0.000000 -0.000000 0.000000 -0.000000 1.157754 10.476220 11.931376 0.051674 0.624011 3.760938 1.304717 7.809133 18.502140 0.736745 -0.847032 -19.091265 -0.000000 -0.000000 -0.000000 0.000000 0.000000 -0.000000 0.000000 -0.000000 -0.000000 
-0.006348 88.855835 -0.078592 -0.528500 0.121486 -6.624652 0.019190 0.027019 5.920452 1.012175 -0.064459 0.854964 -0.482589 2.469973 3.919253 -0.151668 0.810616 1.941121 -2.447681 -0.833753 4.860233 -0.370571 -2.110986 -3.325738 0.756886 0.847189 -18.262026 -0.000000 -0.000000 0.000000 92.178055 -0.228008 5.626094 69.557999 -19.942139 -1.037416 0.060071 8.128433 27.757210 3.195890 25.126654 -9.147132 11.236527 -1.888869 39.607235 -0.000000 -0.000000 -27.360001 -0.000000 -0.000000 -19.000000 0.000000 0.000000 0.000000 13.073683 16.657574 -11.857000 11.109462 -0.673356 -3.359778 11.108838 0.308071 -3.167101 0.000000 0.000000 0.000000 14.492912 6.866219 -11.274312 11.040216 -0.859978 -1.344661 11.039190 0.110688 -1.153177 0.000000 0.000000 0.000000 19.818523 -8.853263 -10.444396 12.644351 1.757198 1.976680 12.638938 -0.178049 1.536751 0.000000 0.000000 0.000000 23.732641 -25.630001 -10.371429 12.470900 3.361489 5.859946 12.450078 -0.539653 4.996800 -0.000000 0.000000 0.000000 -0.000000 -0.000000 0.000000 -0.000000 0.000000 -0.000000 -90.798576 0.144473 9.291403 -68.053001 34.239410 -2.010132 -0.910236 -12.423433 36.380028 -4.931599 -13.651587 -14.136584 -10.637672 1.840801 39.870991 -0.000000 -0.000000 -25.920000 0.000000 0.000000 -18.000000 0.000000 0.000000 0.000000 -15.599115 16.740587 -10.317968 -8.473655 -0.783622 2.569055 -8.473971 0.180477 2.421760 -0.000000 0.000000 0.000000 -12.422482 6.861754 -11.461469 -7.682940 -0.943360 0.938686 -7.685076 -0.141989 0.804556 -0.000000 0.000000 0.000000 -9.125296 -8.815175 -11.725425 -7.609770 1.918960 -1.195940 -7.605490 -0.063138 -0.931138 -0.000000 0.000000 0.000000 -4.075715 -25.323866 -14.018099 -6.613771 3.820009 -3.121586 -6.599147 -0.151094 -2.661250 -0.000000 0.000000 0.000000 0.000000 0.000000 0.000000 -0.000000 -0.000000 -0.000000 1.905410 6.535717 7.570607 -0.037428 -0.409589 7.556788 -4.698965 1.565025 17.974642 -0.353308 0.336746 -20.669008 -0.000000 0.000000 0.000000 0.000000 0.000000 0.000000 -0.000000 0.000000 0.000000 1.152715 10.441591 11.951944 0.051704 0.623074 3.760715 1.311718 7.789306 18.510693 0.735277 -0.844667 -19.102278 -0.000000 -0.000000 -0.000000 0.000000 -0.000000 -0.000000 0.000000 -0.000000 -0.000000 
